<mxfile host="Electron" modified="2024-05-13T17:23:54.537Z" agent="Mozilla/5.0 (Windows NT 10.0; Win64; x64) AppleWebKit/537.36 (KHTML, like Gecko) draw.io/24.2.5 Chrome/120.0.6099.109 Electron/28.1.0 Safari/537.36" etag="cETS35yr5gKd2Nb051jb" version="24.2.5" type="device">
  <diagram name="Page-1" id="42789a77-a242-8287-6e28-9cd8cfd52e62">
    <mxGraphModel dx="1418" dy="828" grid="1" gridSize="10" guides="1" tooltips="1" connect="1" arrows="1" fold="1" page="1" pageScale="1" pageWidth="1100" pageHeight="850" background="none" math="0" shadow="0">
      <root>
        <mxCell id="0" />
        <mxCell id="1" parent="0" />
        <mxCell id="s2VggLwKpqVYu8hcAF6E-1" value="Visualizar&amp;nbsp; actividad" style="ellipse;whiteSpace=wrap;html=1;" vertex="1" parent="1">
          <mxGeometry x="560" y="50" width="120" height="70" as="geometry" />
        </mxCell>
        <mxCell id="s2VggLwKpqVYu8hcAF6E-2" value="Realizar solicitud actividad" style="ellipse;whiteSpace=wrap;html=1;" vertex="1" parent="1">
          <mxGeometry x="570" y="170" width="120" height="80" as="geometry" />
        </mxCell>
        <mxCell id="s2VggLwKpqVYu8hcAF6E-3" value="Modificar solicitud que estes solicitando" style="ellipse;whiteSpace=wrap;html=1;" vertex="1" parent="1">
          <mxGeometry x="560" y="280" width="120" height="80" as="geometry" />
        </mxCell>
        <mxCell id="s2VggLwKpqVYu8hcAF6E-4" value="Aprobar&amp;nbsp; y denegar solicitudes" style="ellipse;whiteSpace=wrap;html=1;" vertex="1" parent="1">
          <mxGeometry x="560" y="400" width="120" height="80" as="geometry" />
        </mxCell>
        <mxCell id="s2VggLwKpqVYu8hcAF6E-6" value="Modificar todo tipo de solicitudes" style="ellipse;whiteSpace=wrap;html=1;" vertex="1" parent="1">
          <mxGeometry x="550" y="530" width="120" height="80" as="geometry" />
        </mxCell>
        <mxCell id="s2VggLwKpqVYu8hcAF6E-7" value="Mantenimiento basico" style="ellipse;whiteSpace=wrap;html=1;" vertex="1" parent="1">
          <mxGeometry x="550" y="660" width="120" height="80" as="geometry" />
        </mxCell>
        <mxCell id="s2VggLwKpqVYu8hcAF6E-10" value="Profesor" style="shape=umlActor;verticalLabelPosition=bottom;verticalAlign=top;html=1;outlineConnect=0;" vertex="1" parent="1">
          <mxGeometry x="140" y="120" width="30" height="60" as="geometry" />
        </mxCell>
        <mxCell id="s2VggLwKpqVYu8hcAF6E-12" value="Administrador" style="shape=umlActor;verticalLabelPosition=bottom;verticalAlign=top;html=1;outlineConnect=0;" vertex="1" parent="1">
          <mxGeometry x="140" y="450" width="30" height="60" as="geometry" />
        </mxCell>
        <mxCell id="s2VggLwKpqVYu8hcAF6E-17" value="Equipo Directivo" style="shape=umlActor;verticalLabelPosition=bottom;verticalAlign=top;html=1;outlineConnect=0;" vertex="1" parent="1">
          <mxGeometry x="140" y="290" width="30" height="60" as="geometry" />
        </mxCell>
        <mxCell id="s2VggLwKpqVYu8hcAF6E-20" value="SuperUsuario&lt;div&gt;&lt;br&gt;&lt;/div&gt;" style="shape=umlActor;verticalLabelPosition=bottom;verticalAlign=top;html=1;outlineConnect=0;" vertex="1" parent="1">
          <mxGeometry x="140" y="640" width="30" height="60" as="geometry" />
        </mxCell>
        <mxCell id="s2VggLwKpqVYu8hcAF6E-22" value="" style="endArrow=none;html=1;rounded=0;" edge="1" parent="1" target="s2VggLwKpqVYu8hcAF6E-1">
          <mxGeometry width="50" height="50" relative="1" as="geometry">
            <mxPoint x="200" y="160" as="sourcePoint" />
            <mxPoint x="570" y="160" as="targetPoint" />
          </mxGeometry>
        </mxCell>
        <mxCell id="s2VggLwKpqVYu8hcAF6E-23" value="" style="endArrow=none;html=1;rounded=0;" edge="1" parent="1" target="s2VggLwKpqVYu8hcAF6E-2">
          <mxGeometry width="50" height="50" relative="1" as="geometry">
            <mxPoint x="200" y="160" as="sourcePoint" />
            <mxPoint x="570" y="160" as="targetPoint" />
          </mxGeometry>
        </mxCell>
        <mxCell id="s2VggLwKpqVYu8hcAF6E-24" value="" style="endArrow=none;html=1;rounded=0;entryX=0.017;entryY=0.425;entryDx=0;entryDy=0;entryPerimeter=0;" edge="1" parent="1" target="s2VggLwKpqVYu8hcAF6E-3">
          <mxGeometry width="50" height="50" relative="1" as="geometry">
            <mxPoint x="200" y="160" as="sourcePoint" />
            <mxPoint x="570" y="160" as="targetPoint" />
          </mxGeometry>
        </mxCell>
        <mxCell id="s2VggLwKpqVYu8hcAF6E-26" value="" style="endArrow=none;html=1;rounded=0;" edge="1" parent="1" target="s2VggLwKpqVYu8hcAF6E-1">
          <mxGeometry width="50" height="50" relative="1" as="geometry">
            <mxPoint x="190" y="330" as="sourcePoint" />
            <mxPoint x="570" y="360" as="targetPoint" />
          </mxGeometry>
        </mxCell>
        <mxCell id="s2VggLwKpqVYu8hcAF6E-27" value="" style="endArrow=none;html=1;rounded=0;" edge="1" parent="1" target="s2VggLwKpqVYu8hcAF6E-2">
          <mxGeometry width="50" height="50" relative="1" as="geometry">
            <mxPoint x="190" y="330" as="sourcePoint" />
            <mxPoint x="570" y="360" as="targetPoint" />
          </mxGeometry>
        </mxCell>
        <mxCell id="s2VggLwKpqVYu8hcAF6E-28" value="" style="endArrow=none;html=1;rounded=0;" edge="1" parent="1" target="s2VggLwKpqVYu8hcAF6E-3">
          <mxGeometry width="50" height="50" relative="1" as="geometry">
            <mxPoint x="190" y="330" as="sourcePoint" />
            <mxPoint x="570" y="360" as="targetPoint" />
          </mxGeometry>
        </mxCell>
        <mxCell id="s2VggLwKpqVYu8hcAF6E-29" value="" style="endArrow=none;html=1;rounded=0;" edge="1" parent="1" target="s2VggLwKpqVYu8hcAF6E-4">
          <mxGeometry width="50" height="50" relative="1" as="geometry">
            <mxPoint x="190" y="330" as="sourcePoint" />
            <mxPoint x="570" y="360" as="targetPoint" />
          </mxGeometry>
        </mxCell>
        <mxCell id="s2VggLwKpqVYu8hcAF6E-31" value="" style="endArrow=none;html=1;rounded=0;" edge="1" parent="1" target="s2VggLwKpqVYu8hcAF6E-1">
          <mxGeometry width="50" height="50" relative="1" as="geometry">
            <mxPoint x="210" y="490" as="sourcePoint" />
            <mxPoint x="570" y="360" as="targetPoint" />
          </mxGeometry>
        </mxCell>
        <mxCell id="s2VggLwKpqVYu8hcAF6E-32" value="" style="endArrow=none;html=1;rounded=0;" edge="1" parent="1" target="s2VggLwKpqVYu8hcAF6E-3">
          <mxGeometry width="50" height="50" relative="1" as="geometry">
            <mxPoint x="210" y="490" as="sourcePoint" />
            <mxPoint x="570" y="360" as="targetPoint" />
          </mxGeometry>
        </mxCell>
        <mxCell id="s2VggLwKpqVYu8hcAF6E-33" value="" style="endArrow=none;html=1;rounded=0;" edge="1" parent="1" target="s2VggLwKpqVYu8hcAF6E-2">
          <mxGeometry width="50" height="50" relative="1" as="geometry">
            <mxPoint x="210" y="490" as="sourcePoint" />
            <mxPoint x="570" y="360" as="targetPoint" />
          </mxGeometry>
        </mxCell>
        <mxCell id="s2VggLwKpqVYu8hcAF6E-34" value="" style="endArrow=none;html=1;rounded=0;" edge="1" parent="1" target="s2VggLwKpqVYu8hcAF6E-4">
          <mxGeometry width="50" height="50" relative="1" as="geometry">
            <mxPoint x="210" y="490" as="sourcePoint" />
            <mxPoint x="570" y="460" as="targetPoint" />
          </mxGeometry>
        </mxCell>
        <mxCell id="s2VggLwKpqVYu8hcAF6E-36" value="" style="endArrow=none;html=1;rounded=0;" edge="1" parent="1" target="s2VggLwKpqVYu8hcAF6E-6">
          <mxGeometry width="50" height="50" relative="1" as="geometry">
            <mxPoint x="210" y="490" as="sourcePoint" />
            <mxPoint x="570" y="460" as="targetPoint" />
          </mxGeometry>
        </mxCell>
        <mxCell id="s2VggLwKpqVYu8hcAF6E-37" value="" style="endArrow=none;html=1;rounded=0;" edge="1" parent="1" target="s2VggLwKpqVYu8hcAF6E-1">
          <mxGeometry width="50" height="50" relative="1" as="geometry">
            <mxPoint x="190" y="690" as="sourcePoint" />
            <mxPoint x="570" y="460" as="targetPoint" />
          </mxGeometry>
        </mxCell>
        <mxCell id="s2VggLwKpqVYu8hcAF6E-38" value="" style="endArrow=none;html=1;rounded=0;" edge="1" parent="1" target="s2VggLwKpqVYu8hcAF6E-4">
          <mxGeometry width="50" height="50" relative="1" as="geometry">
            <mxPoint x="190" y="690" as="sourcePoint" />
            <mxPoint x="570" y="460" as="targetPoint" />
          </mxGeometry>
        </mxCell>
        <mxCell id="s2VggLwKpqVYu8hcAF6E-39" value="" style="endArrow=none;html=1;rounded=0;" edge="1" parent="1" target="s2VggLwKpqVYu8hcAF6E-2">
          <mxGeometry width="50" height="50" relative="1" as="geometry">
            <mxPoint x="190" y="690" as="sourcePoint" />
            <mxPoint x="570" y="460" as="targetPoint" />
          </mxGeometry>
        </mxCell>
        <mxCell id="s2VggLwKpqVYu8hcAF6E-40" value="" style="endArrow=none;html=1;rounded=0;" edge="1" parent="1" target="s2VggLwKpqVYu8hcAF6E-3">
          <mxGeometry width="50" height="50" relative="1" as="geometry">
            <mxPoint x="190" y="690" as="sourcePoint" />
            <mxPoint x="570" y="460" as="targetPoint" />
          </mxGeometry>
        </mxCell>
        <mxCell id="s2VggLwKpqVYu8hcAF6E-42" value="" style="endArrow=none;html=1;rounded=0;entryX=0.017;entryY=0.588;entryDx=0;entryDy=0;entryPerimeter=0;" edge="1" parent="1" target="s2VggLwKpqVYu8hcAF6E-6">
          <mxGeometry width="50" height="50" relative="1" as="geometry">
            <mxPoint x="190" y="690" as="sourcePoint" />
            <mxPoint x="570" y="460" as="targetPoint" />
          </mxGeometry>
        </mxCell>
        <mxCell id="s2VggLwKpqVYu8hcAF6E-43" value="" style="endArrow=none;html=1;rounded=0;" edge="1" parent="1" target="s2VggLwKpqVYu8hcAF6E-7">
          <mxGeometry width="50" height="50" relative="1" as="geometry">
            <mxPoint x="190" y="690" as="sourcePoint" />
            <mxPoint x="570" y="460" as="targetPoint" />
          </mxGeometry>
        </mxCell>
        <mxCell id="s2VggLwKpqVYu8hcAF6E-44" value="Aprobar Solictudes" style="ellipse;whiteSpace=wrap;html=1;" vertex="1" parent="1">
          <mxGeometry x="840" y="260" width="120" height="80" as="geometry" />
        </mxCell>
        <mxCell id="s2VggLwKpqVYu8hcAF6E-45" value="Denegar Solicitudes" style="ellipse;whiteSpace=wrap;html=1;" vertex="1" parent="1">
          <mxGeometry x="840" y="360" width="120" height="80" as="geometry" />
        </mxCell>
        <mxCell id="s2VggLwKpqVYu8hcAF6E-46" value="Editar datos" style="ellipse;whiteSpace=wrap;html=1;" vertex="1" parent="1">
          <mxGeometry x="820" y="490" width="120" height="80" as="geometry" />
        </mxCell>
        <mxCell id="s2VggLwKpqVYu8hcAF6E-47" value="Cargar CSV" style="ellipse;whiteSpace=wrap;html=1;" vertex="1" parent="1">
          <mxGeometry x="840" y="600" width="120" height="80" as="geometry" />
        </mxCell>
        <mxCell id="s2VggLwKpqVYu8hcAF6E-48" value="Inhabilitar profesores" style="ellipse;whiteSpace=wrap;html=1;" vertex="1" parent="1">
          <mxGeometry x="830" y="730" width="120" height="80" as="geometry" />
        </mxCell>
        <mxCell id="s2VggLwKpqVYu8hcAF6E-50" value="" style="endArrow=none;dashed=1;html=1;rounded=0;entryX=0.067;entryY=0.75;entryDx=0;entryDy=0;entryPerimeter=0;" edge="1" parent="1" source="s2VggLwKpqVYu8hcAF6E-4" target="s2VggLwKpqVYu8hcAF6E-44">
          <mxGeometry width="50" height="50" relative="1" as="geometry">
            <mxPoint x="700" y="400" as="sourcePoint" />
            <mxPoint x="750" y="350" as="targetPoint" />
          </mxGeometry>
        </mxCell>
        <mxCell id="s2VggLwKpqVYu8hcAF6E-51" value="" style="endArrow=none;dashed=1;html=1;rounded=0;" edge="1" parent="1" source="s2VggLwKpqVYu8hcAF6E-45" target="s2VggLwKpqVYu8hcAF6E-4">
          <mxGeometry width="50" height="50" relative="1" as="geometry">
            <mxPoint x="520" y="510" as="sourcePoint" />
            <mxPoint x="570" y="460" as="targetPoint" />
          </mxGeometry>
        </mxCell>
        <mxCell id="s2VggLwKpqVYu8hcAF6E-52" value="" style="endArrow=none;dashed=1;html=1;rounded=0;entryX=0;entryY=0.5;entryDx=0;entryDy=0;" edge="1" parent="1" source="s2VggLwKpqVYu8hcAF6E-7" target="s2VggLwKpqVYu8hcAF6E-46">
          <mxGeometry width="50" height="50" relative="1" as="geometry">
            <mxPoint x="520" y="510" as="sourcePoint" />
            <mxPoint x="570" y="460" as="targetPoint" />
          </mxGeometry>
        </mxCell>
        <mxCell id="s2VggLwKpqVYu8hcAF6E-53" value="" style="endArrow=none;dashed=1;html=1;rounded=0;" edge="1" parent="1" source="s2VggLwKpqVYu8hcAF6E-7" target="s2VggLwKpqVYu8hcAF6E-47">
          <mxGeometry width="50" height="50" relative="1" as="geometry">
            <mxPoint x="520" y="510" as="sourcePoint" />
            <mxPoint x="570" y="460" as="targetPoint" />
          </mxGeometry>
        </mxCell>
        <mxCell id="s2VggLwKpqVYu8hcAF6E-54" value="" style="endArrow=none;dashed=1;html=1;rounded=0;" edge="1" parent="1" source="s2VggLwKpqVYu8hcAF6E-7" target="s2VggLwKpqVYu8hcAF6E-48">
          <mxGeometry width="50" height="50" relative="1" as="geometry">
            <mxPoint x="520" y="510" as="sourcePoint" />
            <mxPoint x="570" y="460" as="targetPoint" />
          </mxGeometry>
        </mxCell>
        <mxCell id="s2VggLwKpqVYu8hcAF6E-55" value="&amp;lt;&amp;lt;include&amp;gt;&amp;gt;" style="text;html=1;align=center;verticalAlign=middle;whiteSpace=wrap;rounded=0;rotation=-15;" vertex="1" parent="1">
          <mxGeometry x="760" y="380" width="60" height="30" as="geometry" />
        </mxCell>
        <mxCell id="s2VggLwKpqVYu8hcAF6E-56" value="&amp;lt;&amp;lt;include&amp;gt;&amp;gt;" style="text;html=1;align=center;verticalAlign=middle;whiteSpace=wrap;rounded=0;rotation=-30;" vertex="1" parent="1">
          <mxGeometry x="740" y="320" width="60" height="30" as="geometry" />
        </mxCell>
        <mxCell id="s2VggLwKpqVYu8hcAF6E-57" value="&amp;lt;&amp;lt;include&amp;gt;&amp;gt;" style="text;html=1;align=center;verticalAlign=middle;whiteSpace=wrap;rounded=0;rotation=-45;" vertex="1" parent="1">
          <mxGeometry x="710" y="555" width="60" height="30" as="geometry" />
        </mxCell>
        <mxCell id="s2VggLwKpqVYu8hcAF6E-58" value="&amp;lt;&amp;lt;include&amp;gt;&amp;gt;" style="text;html=1;align=center;verticalAlign=middle;whiteSpace=wrap;rounded=0;rotation=-15;" vertex="1" parent="1">
          <mxGeometry x="750" y="625" width="60" height="30" as="geometry" />
        </mxCell>
        <mxCell id="s2VggLwKpqVYu8hcAF6E-59" value="&amp;lt;&amp;lt;include&amp;gt;&amp;gt;" style="text;html=1;align=center;verticalAlign=middle;whiteSpace=wrap;rounded=0;rotation=15;" vertex="1" parent="1">
          <mxGeometry x="750" y="710" width="60" height="30" as="geometry" />
        </mxCell>
      </root>
    </mxGraphModel>
  </diagram>
</mxfile>
